<svg xmlns="http://www.w3.org/2000/svg" viewBox="0 0 1600 900" role="img" aria-labelledby="title desc">
  <title id="title">شمعة وعلم مطوي</title>
  <desc id="desc">شمعة صغيرة قرب أوراق أرشيفية وعلم الثورة السورية مطوي.</desc>
  <defs>
    <radialGradient id="candle" cx="44%" cy="42%" r="38%"><stop offset="0" stop-color="#e8dcc8" stop-opacity="0.5"/><stop offset="0.34" stop-color="#a58f57" stop-opacity="0.16"/><stop offset="1" stop-color="#000" stop-opacity="0"/></radialGradient>
    <filter id="grain"><feTurbulence baseFrequency="0.76" numOctaves="4" seed="120"/><feColorMatrix type="saturate" values="0"/><feComponentTransfer><feFuncA type="table" tableValues="0 0.14"/></feComponentTransfer></filter>
  </defs>
  <rect width="1600" height="900" fill="#070807"/>
  <rect width="1600" height="900" fill="url(#candle)"/>
  <path d="M755 520h520v70H755z" fill="#114845" opacity="0.85"/>
  <path d="M755 590h520v70H755z" fill="#d8d0bd" opacity="0.82"/>
  <path d="M755 660h520v70H755z" fill="#060706" opacity="0.9"/>
  <circle cx="900" cy="625" r="14" fill="#8a2420"/>
  <circle cx="1015" cy="625" r="14" fill="#8a2420"/>
  <circle cx="1130" cy="625" r="14" fill="#8a2420"/>
  <path d="M720 510c185 20 342 16 555-5v225c-188 31-365 31-555 0z" fill="#000" opacity="0.16"/>
  <path d="M345 315h260v365H345z" fill="#c7bea9" opacity="0.58"/>
  <path d="M390 395h165M390 455h138M390 515h178" stroke="#201d17" stroke-opacity="0.24" stroke-width="8"/>
  <path d="M625 610h95v150H625z" fill="#d8d0bd" opacity="0.84"/>
  <path d="M658 610c-8-42 20-60 14-96 34 40 61 70 18 96z" fill="#a58f57"/>
  <path d="M675 552c22 30 28 42 8 58" stroke="#f2e4bc" stroke-opacity="0.8" stroke-width="7" stroke-linecap="round"/>
  <ellipse cx="855" cy="770" rx="590" ry="62" fill="#000" opacity="0.36"/>
  <rect width="1600" height="900" filter="url(#grain)" opacity="0.5"/>
</svg>
