<svg xmlns="http://www.w3.org/2000/svg" viewBox="0 0 1600 900" role="img" aria-labelledby="title desc">
  <title id="title">كرسي فارغ وصورة مطموسة</title>
  <desc id="desc">كرسي فارغ أمام جدار متشقق وصورة عائلية مطموسة.</desc>
  <defs>
    <linearGradient id="bg" x1="0" y1="0" x2="1" y2="1"><stop offset="0" stop-color="#1b1d19"/><stop offset="1" stop-color="#060706"/></linearGradient>
    <filter id="blur"><feGaussianBlur stdDeviation="7"/></filter>
    <filter id="grain"><feTurbulence baseFrequency="0.72" numOctaves="4" seed="87"/><feColorMatrix type="saturate" values="0"/><feComponentTransfer><feFuncA type="table" tableValues="0 0.14"/></feComponentTransfer></filter>
  </defs>
  <rect width="1600" height="900" fill="url(#bg)"/>
  <path d="M245 125h1110v615H245z" fill="#171a17"/>
  <path d="M500 190h300v210H500z" fill="#0c0d0c" stroke="#d8d0bd" stroke-opacity="0.12" stroke-width="8"/>
  <circle cx="600" cy="282" r="43" fill="#d8d0bd" opacity="0.17" filter="url(#blur)"/>
  <circle cx="697" cy="282" r="43" fill="#d8d0bd" opacity="0.14" filter="url(#blur)"/>
  <path d="M560 357c78-42 158-42 236 0" stroke="#d8d0bd" stroke-opacity="0.12" stroke-width="28" filter="url(#blur)"/>
  <path d="M1025 175c-70 90-68 169 6 237 44 41 33 92-32 153" fill="none" stroke="#d8d0bd" stroke-opacity="0.12" stroke-width="8"/>
  <path d="M842 486h240v48H842zM880 534h162v205H880z" fill="#241f18"/>
  <path d="M872 739l-60 92M1045 739l55 92M898 739l-5 92M1025 739l18 92" stroke="#241f18" stroke-width="18" stroke-linecap="round"/>
  <path d="M245 740h1110v160H245z" fill="#080908"/>
  <ellipse cx="960" cy="806" rx="210" ry="38" fill="#000" opacity="0.42"/>
  <rect width="1600" height="900" filter="url(#grain)" opacity="0.52"/>
</svg>
